# xmcd CD database file
#
# Track frame offsets:
#	150
#	14027
#	30776
#	44578
#	59231
#	72707
#	86946
#	104019
#	117666
#	137522
#	153263
#	170110
#
# Disc length: 2469 seconds
#
# Revision: 0
# Processed by: cddbd v1.5.1PL2 Copyright (c) Steve Scherf et al.
# Submitted via: CDex 1.51
#
DISCID=b909a30c
DTITLE=Rainer Brunn - Jewels of Acoustic Blues
DYEAR=2005
DGENRE=Blues
TTITLE0=Deep River Blues
TTITLE1=Come on Into My Kitchen
TTITLE2=Stagolee
TTITLE3=Santa Cruz
TTITLE4=Can't be Satisfied
TTITLE5=Hard Time Killing Floor
TTITLE6=St. James Infirmary
TTITLE7=Big Hardy's Dance
TTITLE8=Hard Times
TTITLE9=Fishing Blues
TTITLE10=Anji
TTITLE11=Cocaine Blues
EXTD=YEAR: 2005
EXTT0=
EXTT1=
EXTT2=
EXTT3=
EXTT4=
EXTT5=
EXTT6=
EXTT7=
EXTT8=
EXTT9=
EXTT10=
EXTT11=
PLAYORDER=
